<svg width="1212" height="212" viewBox="0 0 1212 212" fill="none" xmlns="http://www.w3.org/2000/svg">
<path d="M0 0H36.0135L55.7374 101.414V162.5C55.7374 164.203 57.1128 165.591 58.8209 165.591H59.2344C60.9335 165.591 62.318 164.212 62.318 162.5V101.414L81.7541 0H117.768V212H86.321L88.0381 151.842L98.9428 78.8986C99.2215 77.0336 97.7831 75.3487 95.8952 75.3487H95.5446C94.0253 75.3487 92.7308 76.4569 92.4971 77.9706L81.1788 151.842L71.7484 199.107H46.0193L36.8766 151.842L25.2796 77.9616C25.0459 76.4569 23.7513 75.3487 22.232 75.3487H21.8814C19.9935 75.3487 18.5462 77.0336 18.8338 78.9076L30.0083 151.842L31.7253 212H0V0Z" fill="#C2FE0C"/>
<path d="M219.812 179.628L216.666 212H186.37L211.245 0H253.263L277.851 212H247.555L244.408 179.628H219.812ZM241.828 152.409L235.823 86.8092V44.5533C235.823 42.5712 234.223 40.9765 232.254 40.9765C230.276 40.9765 228.685 42.5802 228.685 44.5533V86.8092L222.392 152.409H241.828Z" fill="#C2FE0C"/>
<path d="M434.778 212H403.907L384.759 135.228V115.974C384.759 114.271 386.134 112.883 387.842 112.883H389.91C392.004 112.883 393.865 111.928 395.484 110.018C397.102 108.108 397.911 105.631 397.911 102.567V36.9581C397.911 33.7146 397.147 31.2279 395.627 29.507C394.099 27.7861 392.193 26.9302 389.91 26.9302H377.621V212H346.462V0H390.485C404.581 0 414.587 3.05431 420.502 9.16294C426.409 15.2806 429.366 25.5878 429.366 40.1025V99.4048C429.366 110.289 428.369 118.415 426.364 123.758C424.359 129.11 420.502 132.921 414.785 135.219L434.796 211.991L434.778 212Z" fill="#C2FE0C"/>
<path d="M561.41 179.628H536.823L533.676 212H503.38L528.246 0H570.265L594.852 212H564.557L561.41 179.628ZM558.839 152.409L552.834 86.8092V44.0578C552.834 42.355 551.458 40.9674 549.75 40.9674H548.77C547.071 40.9674 545.687 42.3459 545.687 44.0578V86.8092L539.394 152.409H558.839Z" fill="#C2FE0C"/>
<path d="M733.486 26.9302H705.761V212H674.314V26.9302H646.302V0H733.486V26.9302Z" fill="#C2FE0C"/>
<path d="M883.275 0V212H851.829V119.181H830.676V212H799.229V0H830.676V92.2511H851.829V0H883.275Z" fill="#C2FE0C"/>
<path d="M972.167 202.828C966.261 196.719 963.303 186.313 963.303 171.6V40.1115C963.303 25.5968 966.252 15.2896 972.167 9.17195C978.074 3.06332 988.08 0.00900977 1002.18 0.00900977H1007.9C1022 0.00900977 1032 3.06332 1037.92 9.17195C1043.83 15.2896 1046.78 25.5968 1046.78 40.1115V171.609C1046.78 186.322 1043.83 196.728 1037.92 202.837C1032.01 208.955 1022.01 212 1007.9 212H1002.18C988.08 212 978.074 208.946 972.167 202.837V202.828ZM1007.33 185.07C1009.61 185.07 1011.52 184.115 1013.04 182.205C1014.56 180.295 1015.33 177.817 1015.33 174.754V36.9581C1015.33 33.7146 1014.56 31.2279 1013.04 29.507C1011.52 27.7861 1009.61 26.9302 1007.33 26.9302H1002.75C1000.47 26.9302 998.553 27.7861 997.034 29.507C995.505 31.2279 994.75 33.7146 994.75 36.9581V174.754C994.75 177.808 995.505 180.295 997.034 182.205C998.553 184.115 1000.47 185.07 1002.75 185.07H1007.33Z" fill="#C2FE0C"/>
<path d="M1123.95 0H1151.97L1173.97 75.6281L1188.64 151.337C1188.91 152.788 1190.18 153.833 1191.66 153.833C1193.61 153.833 1195.06 152.058 1194.69 150.148L1181.12 81.07L1180.27 0H1211.99V212H1182.55L1161.68 145.535L1148.69 71.3124C1148.43 69.8348 1147.16 68.7536 1145.65 68.7536H1145.35C1143.43 68.7536 1141.98 70.4925 1142.32 72.3845L1154.25 138.94L1155.97 211.991H1123.95V0Z" fill="#C2FE0C"/>
</svg>
